<svg width="36" height="29" viewBox="0 0 36 29" fill="none" xmlns="http://www.w3.org/2000/svg">
<path d="M17.7406 11.0728C14.863 11.0728 12.5306 13.4062 12.5306 16.2828C12.5306 19.1604 14.863 21.4928 17.7406 21.4928C20.6176 21.4928 22.9506 19.1604 22.9506 16.2828C22.9506 13.4062 20.6176 11.0728 17.7406 11.0728ZM31.6339 5.86281H27.4659C26.8928 5.86281 26.2753 5.41823 26.0943 4.87431L25.0169 1.64099C24.8352 1.09742 24.2184 0.652832 23.6453 0.652832H11.836C11.2629 0.652832 10.6453 1.09742 10.4644 1.64134L9.38694 4.87465C9.20529 5.41823 8.58843 5.86281 8.01533 5.86281H3.84734C1.93702 5.86281 0.374023 7.42581 0.374023 9.33613V24.9661C0.374023 26.8764 1.93702 28.4394 3.84734 28.4394H31.6339C33.5442 28.4394 35.1072 26.8764 35.1072 24.9661V9.33613C35.1072 7.42581 33.5442 5.86281 31.6339 5.86281ZM17.7406 24.9661C12.945 24.9661 9.05733 21.0784 9.05733 16.2828C9.05733 11.4875 12.945 7.59947 17.7406 7.59947C22.5355 7.59947 26.4239 11.4875 26.4239 16.2828C26.4239 21.0784 22.5355 24.9661 17.7406 24.9661ZM30.4182 11.765C29.7472 11.765 29.2026 11.2211 29.2026 10.5494C29.2026 9.87832 29.7472 9.3337 30.4182 9.3337C31.09 9.3337 31.6339 9.87832 31.6339 10.5494C31.6339 11.2211 31.0896 11.765 30.4182 11.765Z" fill="white"/>
</svg>
