<svg xmlns="http://www.w3.org/2000/svg" width="16" height="13" viewBox="0 0 16 13" fill="none">
<path d="M14.8571 0.5H1.14286C0.839753 0.5 0.549062 0.626428 0.334735 0.851472C0.120408 1.07652 0 1.38174 0 1.7V11.3C0 11.6183 0.120408 11.9235 0.334735 12.1485C0.549062 12.3736 0.839753 12.5 1.14286 12.5H14.8571C15.1602 12.5 15.4509 12.3736 15.6653 12.1485C15.8796 11.9235 16 11.6183 16 11.3V1.7C16 1.38174 15.6653 0.851472 15.6653 0.851472C15.6653 0.851472 15.1602 0.5 14.8571 0.5ZM13.6 1.7L8 5.768L2.4 1.7H13.6ZM1.14286 11.3V2.246L7.67429 6.992C7.76994 7.06168 7.88358 7.09901 8 7.09901C8.11642 7.09901 8.23006 7.06168 8.32571 6.992L14.8571 2.246V11.3H1.14286Z" fill="black"/>
</svg>