<svg xmlns="http://www.w3.org/2000/svg" width="14" height="15" viewBox="0 0 14 15" fill="none">
<path d="M11.4 6.19995H2.3C1.58203 6.19995 1 6.78198 1 7.49995V12.7C1 13.4179 1.58203 14 2.3 14H11.4C12.118 14 12.7 13.4179 12.7 12.7V7.49995C12.7 6.78198 12.118 6.19995 11.4 6.19995Z" stroke="black" stroke-width="1.25" stroke-linecap="round" stroke-linejoin="round"/>
<path d="M2.9502 6.2V2.95C2.9502 2.43283 3.15564 1.93684 3.52134 1.57114C3.88703 1.20545 4.38302 1 4.9002 1H8.8002C9.31737 1 9.81336 1.20545 10.1791 1.57114C10.5448 1.93684 10.7502 2.43283 10.7502 2.95V3.6" stroke="black" stroke-width="1.25" stroke-linecap="round" stroke-linejoin="round"/>
</svg>