<svg
            xmlns="http://www.w3.org/2000/svg"
            width="48"
            height="48"
            viewBox="0 0 48 48"
            fill="none"
          >
            <path
              d="M17.7043 43.352C18.4417 43.2545 19.1867 43.4545 19.7741 43.9069L22.4814 45.9844C23.3763 46.6719 24.6212 46.6719 25.5136 45.9844L28.3234 43.827C28.8483 43.4245 29.5108 43.247 30.1657 43.3345L33.6804 43.797C34.7979 43.9444 35.8753 43.322 36.3077 42.2795L37.6601 39.0096C37.9126 38.3971 38.3975 37.9121 39.01 37.6596L42.2797 36.3072C43.3221 35.8772 43.9446 34.7972 43.7971 33.6797L43.3521 30.2923C43.2546 29.5548 43.4546 28.8099 43.9071 28.2224L45.9844 25.515C46.6719 24.62 46.6719 23.375 45.9844 22.4825L43.8271 19.6726C43.4246 19.1476 43.2472 18.4852 43.3346 17.8302L43.7971 14.3153C43.9446 13.1978 43.3221 12.1203 42.2797 11.6878L39.01 10.3354C38.3975 10.0829 37.9126 9.5979 37.6601 8.98542L36.3077 5.71551C35.8778 4.67304 34.7979 4.05055 33.6804 4.19805L30.1657 4.66054C29.5108 4.75053 28.8483 4.57304 28.3259 4.17305L25.5161 2.01561C24.6212 1.32813 23.3763 1.32813 22.4839 2.01561L19.6741 4.17305C19.1492 4.57304 18.4867 4.75053 17.8318 4.66554L14.3171 4.20305C13.1996 4.05555 12.1222 4.67804 11.6898 5.72051L10.3399 8.99042C10.0849 9.6004 9.59995 10.0854 8.99 10.3404L5.72027 11.6903C4.67786 12.1228 4.05541 13.2003 4.2029 14.3178L4.66536 17.8327C4.75035 18.4877 4.57287 19.1501 4.1729 19.6726L2.01558 22.4825C1.32814 23.3775 1.32814 24.6225 2.01558 25.515L4.1729 28.3249C4.57537 28.8499 4.75285 29.5123 4.66536 30.1673L4.2029 33.6822C4.05541 34.7997 4.67786 35.8772 5.72027 36.3097L8.99 37.6621C9.60245 37.9146 10.0874 38.3996 10.3399 39.0121L11.6923 42.282C12.1222 43.3245 13.2022 43.9469 14.3196 43.7995L17.7043 43.352Z"
              fill="#0228fb"
            />
            <path
              d="M17.25 24L21.75 28.5L31.875 18.375M17.7043 43.352C18.4417 43.2545 19.1867 43.4545 19.7741 43.9069L22.4814 45.9844C23.3763 46.6719 24.6212 46.6719 25.5136 45.9844L28.3234 43.8269C28.8483 43.4245 29.5108 43.247 30.1657 43.3345L33.6804 43.797C34.7979 43.9444 35.8753 43.322 36.3077 42.2795L37.6601 39.0096C37.9126 38.3971 38.3975 37.9121 39.01 37.6596L42.2797 36.3072C43.3221 35.8772 43.9446 34.7972 43.7971 33.6797L43.3521 30.2923C43.2546 29.5548 43.4546 28.8099 43.9071 28.2224L45.9844 25.515C46.6719 24.62 46.6719 23.375 45.9844 22.4825L43.8271 19.6726C43.4246 19.1476 43.2471 18.4852 43.3346 17.8302L43.7971 14.3153C43.9446 13.1978 43.3221 12.1203 42.2797 11.6878L39.01 10.3354C38.3975 10.0829 37.9126 9.5979 37.6601 8.98542L36.3077 5.71551C35.8778 4.67304 34.7979 4.05055 33.6804 4.19805L30.1657 4.66054C29.5108 4.75053 28.8483 4.57304 28.3259 4.17305L25.5161 2.01561C24.6212 1.32813 23.3763 1.32813 22.4839 2.01561L19.6741 4.17305C19.1492 4.57304 18.4867 4.75053 17.8318 4.66554L14.3171 4.20305C13.1996 4.05555 12.1222 4.67804 11.6898 5.72051L10.3399 8.99042C10.0849 9.6004 9.59995 10.0854 8.99 10.3404L5.72027 11.6903C4.67786 12.1228 4.05541 13.2003 4.2029 14.3178L4.66536 17.8327C4.75035 18.4877 4.57287 19.1501 4.1729 19.6726L2.01558 22.4825C1.32814 23.3775 1.32814 24.6225 2.01558 25.515L4.1729 28.3249C4.57537 28.8499 4.75285 29.5123 4.66536 30.1673L4.2029 33.6822C4.05541 34.7997 4.67786 35.8772 5.72027 36.3097L8.99 37.6621C9.60245 37.9146 10.0874 38.3996 10.3399 39.0121L11.6923 42.282C12.1222 43.3245 13.2021 43.9469 14.3196 43.7995L17.7043 43.352Z"
              stroke="white"
              stroke-width="2"
              stroke-linecap="round"
              stroke-linejoin="round"
            />
          </svg>